<svg xmlns="http://www.w3.org/2000/svg" viewBox="0 0 24 24" fill="none">
    <g id="duck">
        <path d="M18 8H21V10H18V8Z" fill="#FF8C00"/>
        <path d="M18 10H22V12H18V10Z" fill="#FF8C00"/>

        <path d="M12 4H18V8H19V10H18V12H12V4Z" fill="#FFD700"/>

        <path d="M15 6H17V8H15V6Z" fill="black"/>
        <path d="M16 6H17V7H16V6Z" fill="white"/>

        <path d="M6 10H12V12H14V14H16V16H18V18H16V20H4V18H2V14H4V12H6V10Z" fill="#FFD700"/>

        <path d="M8 14H12V16H8V14Z" fill="#E6C200"/>
    </g>
</svg>